<svg xmlns="http://www.w3.org/2000/svg" viewBox="0 16.950000762939453 34 35" data-asc="1.039" width="34" height="35"><defs/><g fill="#ffffff"><g transform="translate(0, 0)"><path d="M34 16.95L32.25 25.15L29.05 25.15L30.00 20.85L29.20 19.75L16.95 19.75L14.20 32.70L22.65 32.70L23.55 31.95L24.00 29.85L27.20 29.85L25.40 38.40L22.20 38.40L22.65 36.30L22.05 35.50L13.60 35.50L10.70 49.15L23.80 49.15L25.00 48.15L26.05 43.25L29.25 43.25L27.40 51.95L0 51.95L0.55 49.15L5.10 49.15L11.35 19.75L6.80 19.75L7.40 16.95L34 16.95Z"/></g></g></svg>