<svg xmlns="http://www.w3.org/2000/svg" viewBox="0 10.800000190734863 71.25 48.20000076293945" data-asc="1.02" width="71.25" height="48.20000076293945"><defs/><g fill="#ffffff"><g transform="translate(0, 0)"><path d="M0.45 51L0.45 49.50L1.95 49.25Q3.50 49 3.98 48.42Q4.45 47.85 4.45 46.30L4.45 28L0 28L0 27.25L1.30 25L4.45 25L4.45 24.20Q4.45 21.50 5.58 19.07Q6.70 16.65 8.63 14.77Q10.55 12.90 12.93 11.85Q15.30 10.80 17.80 10.80Q19.75 10.80 21.33 11.55Q22.90 12.30 22.90 13.55Q22.90 14.40 22.03 15.05Q21.15 15.70 20.15 15.20L16.30 13.40Q15.70 13.15 15.15 13.15Q13.90 13.15 12.45 14.32Q11.00 15.50 9.98 17.57Q8.95 19.65 8.95 22.35L8.95 25L17.45 25L17.45 25.75L16.15 28L8.95 28L8.95 45.80Q8.95 47.50 9.55 48.25Q10.15 49 11.70 49.20L13.95 49.50L13.95 51L0.45 51ZM19.25 35.75Q19.25 30.85 20.43 26.88Q21.60 22.90 24.03 19.40Q26.45 15.90 30.20 12.50L31.10 13.30Q28.65 16.35 27.03 19.77Q25.40 23.20 24.58 27.13Q23.75 31.05 23.75 35.75L19.25 35.75M30.20 59Q26.45 55.55 24.03 52.08Q21.60 48.60 20.43 44.60Q19.25 40.60 19.25 35.75L23.75 35.75Q23.75 40.40 24.58 44.35Q25.40 48.30 27.03 51.70Q28.65 55.10 31.10 58.20L30.20 59ZM46.65 51L46.65 49.50L47.90 49.40Q49.65 49.25 49.98 48.20Q50.30 47.15 49.10 45.60L37.35 30.40Q36.10 28.75 35.30 27.92Q34.50 27.10 33.75 26.82Q33 26.55 31.90 26.50L31.90 26.50L31.90 25L44.40 25L44.40 26.50L43.15 26.65Q41.80 26.80 41.45 27.88Q41.10 28.95 42.05 30.15L53.95 45.60Q55.15 47.15 56.23 48.20Q57.30 49.25 59.15 49.50L59.15 49.50L59.15 51L46.65 51M31.20 51L31.20 49.50L31.20 49.50Q32.55 49.25 33.45 48.88Q34.35 48.50 35.18 47.73Q36 46.95 37.05 45.60L43.70 37.25L44.90 38.95L39.55 45.60Q38.30 47.10 38.63 48.15Q38.95 49.20 40.65 49.35L42.20 49.50L42.20 51L31.20 51M46.70 38.35L45.50 36.65L50.10 30.40Q51.25 28.85 51 27.82Q50.75 26.80 49.30 26.65L47.90 26.50L47.90 25L58.90 25L58.90 26.50L58.90 26.50Q56.75 26.70 55.43 27.55Q54.10 28.40 52.60 30.40L46.70 38.35ZM71.25 35.75L66.75 35.75Q66.75 31.05 65.92 27.13Q65.10 23.20 63.48 19.77Q61.85 16.35 59.40 13.30L60.30 12.50Q64.05 15.90 66.47 19.40Q68.90 22.90 70.08 26.88Q71.25 30.85 71.25 35.75M60.30 59L59.40 58.20Q61.85 55.10 63.48 51.70Q65.10 48.30 65.92 44.35Q66.75 40.40 66.75 35.75L71.25 35.75Q71.25 40.60 70.08 44.60Q68.90 48.60 66.47 52.08Q64.05 55.55 60.30 59Z"/></g></g></svg>